REM DIRINDEX 1\2,1\4,1\5,1\6,1\7,1\3\8,1\3\9,1\3\10
REM DIRNAME cjc113,folder01,folder02,folder03,folder04,folder05,folder06,folder07,folder08,folder09
TITLE ""
FILE "DB4500_5th_0A_03.mp3" MP3
  TRACK 01 AUDIO
    TITLE "7:cjc113_0094"
    INDEX 01 00:00:00
  TRACK 02 AUDIO
    TITLE "2:cjc113_0095"
    INDEX 01 00:02:00
  TRACK 03 AUDIO
    TITLE "0:"
    INDEX 01 00:02:49
  TRACK 04 AUDIO
    TITLE "2:cjc113_0096"
    INDEX 01 00:03:27
  TRACK 05 AUDIO
    TITLE "0:"
    INDEX 01 00:04:46
  TRACK 06 AUDIO
    TITLE "2:cjc113_0097"
    INDEX 01 00:04:50
  TRACK 07 AUDIO
    TITLE "0:"
    INDEX 01 00:05:50
  TRACK 08 AUDIO
    TITLE "2:cjc113_0098"
    INDEX 01 00:05:52
  TRACK 09 AUDIO
    TITLE "0:"
    INDEX 01 00:06:65
  TRACK 10 AUDIO
    TITLE "2:cjc113_0099"
    INDEX 01 00:07:31
  TRACK 11 AUDIO
    TITLE "0:"
    INDEX 01 00:08:11
  TRACK 12 AUDIO
    TITLE "2:cjc113_0100"
    INDEX 01 00:08:66
  TRACK 13 AUDIO
    TITLE "0:"
    INDEX 01 00:09:67
  TRACK 14 AUDIO
    TITLE "2:cjc113_0101"
    INDEX 01 00:09:71
  TRACK 15 AUDIO
    TITLE "0:"
    INDEX 01 00:10:74
  TRACK 16 AUDIO
    TITLE "2:cjc113_0102"
    INDEX 01 00:11:01
  TRACK 17 AUDIO
    TITLE "0:"
    INDEX 01 00:12:07
  TRACK 18 AUDIO
    TITLE "2:cjc113_0103"
    INDEX 01 00:12:52
  TRACK 19 AUDIO
    TITLE "0:"
    INDEX 01 00:13:26
  TRACK 20 AUDIO
    TITLE "2:cjc113_0104"
    INDEX 01 00:14:06
  TRACK 21 AUDIO
    TITLE "0:"
    INDEX 01 00:15:13
  TRACK 22 AUDIO
    TITLE "2:cjc113_0105"
    INDEX 01 00:15:15
  TRACK 23 AUDIO
    TITLE "0:"
    INDEX 01 00:16:26
  TRACK 24 AUDIO
    TITLE "2:cjc113_0106"
    INDEX 01 00:16:28
  TRACK 25 AUDIO
    TITLE "0:"
    INDEX 01 00:17:37
  TRACK 26 AUDIO
    TITLE "2:cjc113_0107"
    INDEX 01 00:18:05
  TRACK 27 AUDIO
    TITLE "0:"
    INDEX 01 00:18:62
  TRACK 28 AUDIO
    TITLE "2:cjc113_0108"
    INDEX 01 00:19:38
  TRACK 29 AUDIO
    TITLE "0:"
    INDEX 01 00:20:45
  TRACK 30 AUDIO
    TITLE "2:cjc113_0109"
    INDEX 01 00:20:47
  TRACK 31 AUDIO
    TITLE "0:"
    INDEX 01 00:21:35
  TRACK 32 AUDIO
    TITLE "2:cjc113_0110"
    INDEX 01 00:21:37
  TRACK 33 AUDIO
    TITLE "0:"
    INDEX 01 00:22:50
  TRACK 34 AUDIO
    TITLE "2:cjc113_0111"
    INDEX 01 00:23:24
  TRACK 35 AUDIO
    TITLE "0:"
    INDEX 01 00:23:71
  TRACK 36 AUDIO
    TITLE "2:cjc113_0112"
    INDEX 01 00:24:53
  TRACK 37 AUDIO
    TITLE "0:"
    INDEX 01 00:25:52
  TRACK 38 AUDIO
    TITLE "2:cjc113_0113"
    INDEX 01 00:25:56
  TRACK 39 AUDIO
    TITLE "0:"
    INDEX 01 00:26:67
  TRACK 40 AUDIO
    TITLE "2:cjc113_0114"
    INDEX 01 00:26:69
  TRACK 41 AUDIO
    TITLE "0:"
    INDEX 01 00:28:04
  TRACK 42 AUDIO
    TITLE "2:cjc113_0115"
    INDEX 01 00:28:49
  TRACK 43 AUDIO
    TITLE "0:"
    INDEX 01 00:29:29
  TRACK 44 AUDIO
    TITLE "2:cjc113_0116"
    INDEX 01 00:29:74
  TRACK 45 AUDIO
    TITLE "0:"
    INDEX 01 00:31:04
  TRACK 46 AUDIO
    TITLE "2:cjc113_0117"
    INDEX 01 00:31:06
  TRACK 47 AUDIO
    TITLE "0:"
    INDEX 01 00:32:13
  TRACK 48 AUDIO
    TITLE "2:cjc113_0118"
    INDEX 01 00:32:15
  TRACK 49 AUDIO
    TITLE "0:"
    INDEX 01 00:33:22
  TRACK 50 AUDIO
    TITLE "2:cjc113_0119"
    INDEX 01 00:34:04
  TRACK 51 AUDIO
    TITLE "0:"
    INDEX 01 00:34:59
  TRACK 52 AUDIO
    TITLE "2:cjc113_0120"
    INDEX 01 00:35:41
  TRACK 53 AUDIO
    TITLE "0:"
    INDEX 01 00:36:46
  TRACK 54 AUDIO
    TITLE "2:cjc113_0121"
    INDEX 01 00:36:48
  TRACK 55 AUDIO
    TITLE "0:"
    INDEX 01 00:37:61
  TRACK 56 AUDIO
    TITLE "2:cjc113_0122"
    INDEX 01 00:37:63
  TRACK 57 AUDIO
    TITLE "0:"
    INDEX 01 00:38:65
  TRACK 58 AUDIO
    TITLE "2:cjc113_0123"
    INDEX 01 00:39:35
  TRACK 59 AUDIO
    TITLE "0:"
    INDEX 01 00:40:17
  TRACK 60 AUDIO
    TITLE "2:cjc113_0124"
    INDEX 01 00:40:72
  TRACK 61 AUDIO
    TITLE "0:"
    INDEX 01 00:42:19
  TRACK 62 AUDIO
    TITLE "2:cjc113_0125"
    INDEX 01 00:42:25
  TRACK 63 AUDIO
    TITLE "0:"
    INDEX 01 00:43:46
  TRACK 64 AUDIO
    TITLE "2:cjc113_0126"
    INDEX 01 00:43:50
  TRACK 65 AUDIO
    TITLE "0:"
    INDEX 01 00:44:65
  TRACK 66 AUDIO
    TITLE "2:cjc113_0127"
    INDEX 01 00:45:41
  TRACK 67 AUDIO
    TITLE "0:"
    INDEX 01 00:46:25
  TRACK 68 AUDIO
    TITLE "2:cjc113_0128"
    INDEX 01 00:47:01
  TRACK 69 AUDIO
    TITLE "0:"
    INDEX 01 00:48:00
  TRACK 70 AUDIO
    TITLE "2:cjc113_0129"
    INDEX 01 00:48:02
  TRACK 71 AUDIO
    TITLE "0:"
    INDEX 01 00:49:10
  TRACK 72 AUDIO
    TITLE "2:cjc113_0130"
    INDEX 01 00:49:16
  TRACK 73 AUDIO
    TITLE "0:"
    INDEX 01 00:50:17
  TRACK 74 AUDIO
    TITLE "2:cjc113_0131"
    INDEX 01 00:50:56
  TRACK 75 AUDIO
    TITLE "0:"
    INDEX 01 00:51:40
  TRACK 76 AUDIO
    TITLE "2:cjc113_0132"
    INDEX 01 00:52:06
  TRACK 77 AUDIO
    TITLE "0:"
    INDEX 01 00:53:13
  TRACK 78 AUDIO
    TITLE "2:cjc113_0133"
    INDEX 01 00:53:15
  TRACK 79 AUDIO
    TITLE "0:"
    INDEX 01 00:54:25
  TRACK 80 AUDIO
    TITLE "2:cjc113_0134"
    INDEX 01 00:54:30
  TRACK 81 AUDIO
    TITLE "0:"
    INDEX 01 00:55:50
  TRACK 82 AUDIO
    TITLE "2:cjc113_0135"
    INDEX 01 00:56:12
  TRACK 83 AUDIO
    TITLE "0:"
    INDEX 01 00:56:65
  TRACK 84 AUDIO
    TITLE "2:cjc113_0136"
    INDEX 01 00:57:27
  TRACK 85 AUDIO
    TITLE "0:"
    INDEX 01 00:58:40
  TRACK 86 AUDIO
    TITLE "2:cjc113_0137"
    INDEX 01 00:58:42
  TRACK 87 AUDIO
    TITLE "0:"
    INDEX 01 00:59:67
  TRACK 88 AUDIO
    TITLE "2:cjc113_0138"
    INDEX 01 00:59:69
  TRACK 89 AUDIO
    TITLE "0:"
    INDEX 01 01:01:07
  TRACK 90 AUDIO
    TITLE "2:cjc113_0139"
    INDEX 01 01:01:46
  TRACK 91 AUDIO
    TITLE "0:"
    INDEX 01 01:02:28
  TRACK 92 AUDIO
    TITLE "2:cjc113_0140"
    INDEX 01 01:02:67
  TRACK 93 AUDIO
    TITLE "0:"
    INDEX 01 01:04:05
  TRACK 94 AUDIO
    TITLE "2:cjc113_0141"
    INDEX 01 01:04:07
  TRACK 95 AUDIO
    TITLE "0:"
    INDEX 01 01:05:22
  TRACK 96 AUDIO
    TITLE "2:cjc113_0142"
    INDEX 01 01:05:26
  TRACK 97 AUDIO
    TITLE "0:"
    INDEX 01 01:06:42
  TRACK 98 AUDIO
    TITLE "2:cjc113_0143"
    INDEX 01 01:07:17
  TRACK 99 AUDIO
    TITLE "0:"
    INDEX 01 01:07:70
  TRACK 100 AUDIO
    TITLE "2:cjc113_0144"
    INDEX 01 01:08:46
  TRACK 101 AUDIO
    TITLE "0:"
    INDEX 01 01:09:65
  TRACK 102 AUDIO
    TITLE "2:cjc113_0145"
    INDEX 01 01:09:67
  TRACK 103 AUDIO
    TITLE "0:"
    INDEX 01 01:11:05
  TRACK 104 AUDIO
    TITLE "2:cjc113_0146"
    INDEX 01 01:11:07
  TRACK 105 AUDIO
    TITLE "0:"
    INDEX 01 01:12:32
  TRACK 106 AUDIO
    TITLE "2:cjc113_0147"
    INDEX 01 01:12:73
  TRACK 107 AUDIO
    TITLE "0:"
    INDEX 01 01:13:55
  TRACK 108 AUDIO
    TITLE "2:cjc113_0148"
    INDEX 01 01:14:21
  TRACK 109 AUDIO
    TITLE "0:"
    INDEX 01 01:15:40
  TRACK 110 AUDIO
    TITLE "2:cjc113_0149"
    INDEX 01 01:15:42
  TRACK 111 AUDIO
    TITLE "0:"
    INDEX 01 01:16:67
  TRACK 112 AUDIO
    TITLE "2:cjc113_0150"
    INDEX 01 01:16:73
  TRACK 113 AUDIO
    TITLE "0:"
    INDEX 01 01:18:31
  TRACK 114 AUDIO
    TITLE "2:cjc113_0151"
    INDEX 01 01:19:05
  TRACK 115 AUDIO
    TITLE "0:"
    INDEX 01 01:19:56
  TRACK 116 AUDIO
    TITLE "2:cjc113_0152"
    INDEX 01 01:20:38
  TRACK 117 AUDIO
    TITLE "0:"
    INDEX 01 01:21:49
  TRACK 118 AUDIO
    TITLE "2:cjc113_0153"
    INDEX 01 01:21:55
  TRACK 119 AUDIO
    TITLE "0:"
    INDEX 01 01:22:68
  TRACK 120 AUDIO
    TITLE "2:cjc113_0154"
    INDEX 01 01:22:70
  TRACK 121 AUDIO
    TITLE "0:"
    INDEX 01 01:24:14
  TRACK 122 AUDIO
    TITLE "2:cjc113_0155"
    INDEX 01 01:24:53
  TRACK 123 AUDIO
    TITLE "0:"
    INDEX 01 01:25:35
  TRACK 124 AUDIO
    TITLE "2:cjc113_0156"
    INDEX 01 01:25:72
  TRACK 125 AUDIO
    TITLE "0:"
    INDEX 01 01:27:16
  TRACK 126 AUDIO
    TITLE "2:cjc113_0157"
    INDEX 01 01:27:20
  TRACK 127 AUDIO
    TITLE "0:"
    INDEX 01 01:28:37
  TRACK 128 AUDIO
    TITLE "2:cjc113_0158"
    INDEX 01 01:28:41
  TRACK 129 AUDIO
    TITLE "0:"
    INDEX 01 01:29:52
  TRACK 130 AUDIO
    TITLE "2:cjc113_0159"
    INDEX 01 01:30:26
  TRACK 131 AUDIO
    TITLE "0:"
    INDEX 01 01:31:04
  TRACK 132 AUDIO
    TITLE "2:cjc113_0160"
    INDEX 01 01:31:63
  TRACK 133 AUDIO
    TITLE "0:"
    INDEX 01 01:32:70
  TRACK 134 AUDIO
    TITLE "2:cjc113_0161"
    INDEX 01 01:32:72
  TRACK 135 AUDIO
    TITLE "0:"
    INDEX 01 01:34:08
  TRACK 136 AUDIO
    TITLE "2:cjc113_0162"
    INDEX 01 01:34:10
  TRACK 137 AUDIO
    TITLE "0:"
    INDEX 01 01:35:26
  TRACK 138 AUDIO
    TITLE "2:cjc113_0163"
    INDEX 01 01:35:69
  TRACK 139 AUDIO
    TITLE "0:"
    INDEX 01 01:36:70
  TRACK 140 AUDIO
    TITLE "2:cjc113_0164"
    INDEX 01 01:37:54
  TRACK 141 AUDIO
    TITLE "0:"
    INDEX 01 01:38:61
  TRACK 142 AUDIO
    TITLE "2:cjc113_0165"
    INDEX 01 01:38:63
  TRACK 143 AUDIO
    TITLE "0:"
    INDEX 01 01:40:17
  TRACK 144 AUDIO
    TITLE "2:cjc113_0166"
    INDEX 01 01:40:21
  TRACK 145 AUDIO
    TITLE "0:"
    INDEX 01 01:41:32
  TRACK 146 AUDIO
    TITLE "2:cjc113_0167"
    INDEX 01 01:42:12
  TRACK 147 AUDIO
    TITLE "0:"
    INDEX 01 01:42:67
  TRACK 148 AUDIO
    TITLE "2:cjc113_0168"
    INDEX 01 01:43:47
  TRACK 149 AUDIO
    TITLE "0:"
    INDEX 01 01:44:62
  TRACK 150 AUDIO
    TITLE "2:cjc113_0169"
    INDEX 01 01:44:64
  TRACK 151 AUDIO
    TITLE "0:"
    INDEX 01 01:46:08
  TRACK 152 AUDIO
    TITLE "2:cjc113_0170"
    INDEX 01 01:46:10
  TRACK 153 AUDIO
    TITLE "0:"
    INDEX 01 01:47:11
  TRACK 154 AUDIO
    TITLE "2:cjc113_0171"
    INDEX 01 01:47:50
  TRACK 155 AUDIO
    TITLE "0:"
    INDEX 01 01:48:28
  TRACK 156 AUDIO
    TITLE "2:cjc113_0172"
    INDEX 01 01:48:71
  TRACK 157 AUDIO
    TITLE "0:"
    INDEX 01 01:49:73
  TRACK 158 AUDIO
    TITLE "2:cjc113_0173"
    INDEX 01 01:50:06
  TRACK 159 AUDIO
    TITLE "0:"
    INDEX 01 01:51:13
  TRACK 160 AUDIO
    TITLE "2:cjc113_0174"
    INDEX 01 01:51:17
  TRACK 161 AUDIO
    TITLE "0:"
    INDEX 01 01:52:32
  TRACK 162 AUDIO
    TITLE "2:cjc113_0175"
    INDEX 01 01:53:02
  TRACK 163 AUDIO
    TITLE "0:"
    INDEX 01 01:53:55
  TRACK 164 AUDIO
    TITLE "2:cjc113_0176"
    INDEX 01 01:54:21
  TRACK 165 AUDIO
    TITLE "0:"
    INDEX 01 01:55:34
  TRACK 166 AUDIO
    TITLE "2:cjc113_0177"
    INDEX 01 01:55:38
  TRACK 167 AUDIO
    TITLE "0:"
    INDEX 01 01:56:53
  TRACK 168 AUDIO
    TITLE "2:cjc113_0178"
    INDEX 01 01:56:55
  TRACK 169 AUDIO
    TITLE "0:"
    INDEX 01 01:57:70
  TRACK 170 AUDIO
    TITLE "2:cjc113_0179"
    INDEX 01 01:58:38
  TRACK 171 AUDIO
    TITLE "0:"
    INDEX 01 01:59:46
  TRACK 172 AUDIO
    TITLE "2:cjc113_0180"
    INDEX 01 02:00:27
  TRACK 173 AUDIO
    TITLE "0:"
    INDEX 01 02:01:25
  TRACK 174 AUDIO
    TITLE "2:cjc113_0181"
    INDEX 01 02:01:29
  TRACK 175 AUDIO
    TITLE "0:"
    INDEX 01 02:02:52
  TRACK 176 AUDIO
    TITLE "2:cjc113_0182"
    INDEX 01 02:02:54
  TRACK 177 AUDIO
    TITLE "0:"
    INDEX 01 02:03:61
  TRACK 178 AUDIO
    TITLE "2:cjc113_0183"
    INDEX 01 02:04:33
  TRACK 179 AUDIO
    TITLE "0:"
    INDEX 01 02:05:13
  TRACK 180 AUDIO
    TITLE "2:cjc113_0184"
    INDEX 01 02:05:52
  TRACK 181 AUDIO
    TITLE "0:"
    INDEX 01 02:06:65
  TRACK 182 AUDIO
    TITLE "2:cjc113_0185"
    INDEX 01 02:07:04
  TRACK 183 AUDIO
    TITLE "0:"
    INDEX 01 02:08:13
  TRACK 184 AUDIO
    TITLE "2:cjc113_0186"
    INDEX 01 02:08:15
  TRACK 185 AUDIO
    TITLE "0:"
    INDEX 01 02:09:22
  TRACK 186 AUDIO
    TITLE "2:cjc113_0187"
    INDEX 01 02:09:71
  TRACK 187 AUDIO
    TITLE "0:"
    INDEX 01 02:10:49
  TRACK 188 AUDIO
    TITLE "2:cjc113_0188"
    INDEX 01 02:11:21
  TRACK 189 AUDIO
    TITLE "0:"
    INDEX 01 02:12:31
  TRACK 190 AUDIO
    TITLE "2:cjc113_0189"
    INDEX 01 02:12:48
  TRACK 191 AUDIO
    TITLE "0:"
    INDEX 01 02:13:61
  TRACK 192 AUDIO
    TITLE "2:cjc113_0190"
    INDEX 01 02:13:63
  TRACK 193 AUDIO
    TITLE "0:"
    INDEX 01 02:15:02
  TRACK 194 AUDIO
    TITLE "2:cjc113_0191"
    INDEX 01 02:15:41
  TRACK 195 AUDIO
    TITLE "0:"
    INDEX 01 02:16:19
  TRACK 196 AUDIO
    TITLE "2:cjc113_0192"
    INDEX 01 02:16:58
  TRACK 197 AUDIO
    TITLE "0:"
    INDEX 01 02:17:71
  TRACK 198 AUDIO
    TITLE "2:cjc113_0193"
    INDEX 01 02:17:73
  TRACK 199 AUDIO
    TITLE "0:"
    INDEX 01 02:19:29
  TRACK 200 AUDIO
    TITLE "2:cjc113_0194"
    INDEX 01 02:19:31
  TRACK 201 AUDIO
    TITLE "0:"
    INDEX 01 02:20:46
  TRACK 202 AUDIO
    TITLE "2:cjc113_0195"
    INDEX 01 02:21:10
  TRACK 203 AUDIO
    TITLE "0:"
    INDEX 01 02:21:61
  TRACK 204 AUDIO
    TITLE "2:cjc113_0196"
    INDEX 01 02:22:29
  TRACK 205 AUDIO
    TITLE "0:"
    INDEX 01 02:23:34
  TRACK 206 AUDIO
    TITLE "2:cjc113_0197"
    INDEX 01 02:23:36
  TRACK 207 AUDIO
    TITLE "0:"
    INDEX 01 02:24:40
  TRACK 208 AUDIO
    TITLE "2:cjc113_0198"
    INDEX 01 02:24:47
  TRACK 209 AUDIO
    TITLE "0:"
    INDEX 01 02:25:59
